<svg id="Layer_1" height="512" viewBox="0 0 32 32" width="512" xmlns="http://www.w3.org/2000/svg" xmlns:xlink="http://www.w3.org/1999/xlink" data-name="Layer 1"><linearGradient id="linear-gradient" gradientUnits="userSpaceOnUse" x1="2.19" x2="29.84" y1="29.29" y2="3.37"><stop offset=".01" stop-color="#0056e0"/><stop offset="1" stop-color="#00e5b8"/></linearGradient><path d="m3.21 19h11.73v12.78h-8.88a3.57 3.57 0 0 1 -3.56-3.55v-9.29c.23.06.5.06.71.06zm13.86 0v12.78h8.93a3.56 3.56 0 0 0 3.55-3.55v-9.29a5.65 5.65 0 0 1 -.71 0zm14.93-8.54v3.19a3.22 3.22 0 0 1 -3.19 3.21h-25.6a3.22 3.22 0 0 1 -3.21-3.21v-3.19a3.22 3.22 0 0 1 3.2-3.2h.11a4 4 0 0 1 -.8-2.66 5.23 5.23 0 0 1 1.68-3.25 3.89 3.89 0 0 1 2.7-1.12 5.22 5.22 0 0 1 1.71.25 12.48 12.48 0 0 1 4 2.53 29.25 29.25 0 0 1 3.44 3.55 28.3 28.3 0 0 1 3.46-3.56 12.52 12.52 0 0 1 4-2.53 4.24 4.24 0 0 1 4.4.87 5.22 5.22 0 0 1 1.7 3.22 4.05 4.05 0 0 1 -.8 2.66 3.21 3.21 0 0 1 3.2 3.24zm-18.14-3.2a28.15 28.15 0 0 0 -2.62-2.64 11 11 0 0 0 -3.31-2.11 2.74 2.74 0 0 0 -1.25-.19 1.7 1.7 0 0 0 -1 .54 3.06 3.06 0 0 0 -1.06 1.87 1.91 1.91 0 0 0 .38 1.27 4.87 4.87 0 0 0 1.48 1.26zm13.66-2.53a3.08 3.08 0 0 0 -1.07-1.87 1.73 1.73 0 0 0 -1-.54 2.86 2.86 0 0 0 -1.25.19 10.89 10.89 0 0 0 -3.3 2.11 27 27 0 0 0 -2.62 2.64h7.38a4.87 4.87 0 0 0 1.45-1.26 2 2 0 0 0 .41-1.27z" fill="url(#linear-gradient)"/></svg>