<svg id="Layer_1" enable-background="new 0 0 53 53" height="512" viewBox="0 0 53 53" width="512" xmlns="http://www.w3.org/2000/svg" xmlns:xlink="http://www.w3.org/1999/xlink"><linearGradient id="SVGID_1_" gradientUnits="userSpaceOnUse" x1="5.017" x2="50.526" y1="27.742" y2="27.742"><stop offset="0" stop-color="#ff7c00"/><stop offset=".3414415" stop-color="#f85c03"/><stop offset=".6405405" stop-color="#ff7c00"/><stop offset="1" stop-color="#f85a03"/></linearGradient><linearGradient id="lg1"><stop offset="0" stop-color="#efefef"/><stop offset=".9999998" stop-color="#96a1b2"/></linearGradient><linearGradient id="SVGID_2_" gradientUnits="userSpaceOnUse" x1="44.379" x2="46.091" xlink:href="#lg1" y1="15.008" y2="13.866"/><linearGradient id="SVGID_3_" gradientUnits="userSpaceOnUse" x1="47.961" x2="42.98" xlink:href="#lg1" y1="39.198" y2="34.218"/><linearGradient id="SVGID_4_" gradientUnits="userSpaceOnUse" x1="25.421" x2="25.421" xlink:href="#lg1" y1="50.319" y2="46.717"/><linearGradient id="lg2"><stop offset=".56949" stop-color="#0d81f3"/><stop offset="1" stop-color="#0850ac"/></linearGradient><linearGradient id="SVGID_5_" gradientUnits="userSpaceOnUse" x1="26.635" x2="24.989" xlink:href="#lg2" y1="48.869" y2="20.178"/><linearGradient id="SVGID_6_" gradientUnits="userSpaceOnUse" x1="25.281" x2="25.281" xlink:href="#lg2" y1="42.707" y2="13.686"/><linearGradient id="lg3"><stop offset="0" stop-color="#fff" stop-opacity="0"/><stop offset=".4423422" stop-color="#fff"/><stop offset=".6405408" stop-color="#fff" stop-opacity=".999"/><stop offset="1" stop-color="#fff" stop-opacity="0"/></linearGradient><linearGradient id="SVGID_7_" gradientUnits="userSpaceOnUse" x1="9.732" x2="40.829" xlink:href="#lg3" y1="25.275" y2="25.275"/><linearGradient id="lg4"><stop offset=".3063062" stop-color="#fff" stop-opacity=".999"/><stop offset="1" stop-color="#fff" stop-opacity="0"/></linearGradient><radialGradient id="SVGID_8_" cx="-41.969" cy="63.435" gradientTransform="matrix(.928 .374 -.374 .928 78.68 -31.723)" gradientUnits="userSpaceOnUse" r="4.026" xlink:href="#lg4"/><radialGradient id="SVGID_9_" cx="-41.969" cy="63.435" gradientTransform="matrix(.928 .374 -.374 .928 78.68 -31.723)" gradientUnits="userSpaceOnUse" r="2.782"><stop offset=".3063063" stop-color="#fff"/><stop offset="1" stop-color="#fff" stop-opacity="0"/></radialGradient><linearGradient id="SVGID_10_" gradientTransform="matrix(-1 0 0 -1 86.322 675.504)" gradientUnits="userSpaceOnUse" x1="61.041" x2="61.041" xlink:href="#lg1" y1="643.053" y2="666.225"/><linearGradient id="SVGID_11_" gradientTransform="matrix(-1 0 0 -1 86.322 675.504)" gradientUnits="userSpaceOnUse" x1="61.041" x2="61.041" y1="649.661" y2="635.408"><stop offset="0" stop-color="#96a1b2"/><stop offset=".1795307" stop-color="#9da7b7"/><stop offset=".4339187" stop-color="#afb7c3"/><stop offset=".7313756" stop-color="#cdd2d8"/><stop offset="1" stop-color="#efefef"/></linearGradient><linearGradient id="SVGID_12_" gradientUnits="userSpaceOnUse" x1="2.526" x2="48.035" xlink:href="#lg3" y1="25.258" y2="25.258"/><linearGradient id="SVGID_13_" gradientUnits="userSpaceOnUse" x1="14.052" x2="36.509" xlink:href="#lg3" y1="25.275" y2="25.275"/><linearGradient id="SVGID_14_" gradientTransform="matrix(-1 0 0 -1 -1748.38 -266.78)" gradientUnits="userSpaceOnUse" x1="-1782.413" x2="-1765.993" y1="-304.258" y2="-304.258"><stop offset="0" stop-color="#fff" stop-opacity="0"/><stop offset=".3234233" stop-color="#fff"/><stop offset=".6873873" stop-color="#fff" stop-opacity=".999"/><stop offset="1" stop-color="#fff" stop-opacity="0"/></linearGradient><radialGradient id="SVGID_15_" cx="-1777.595" cy="-301.834" gradientTransform="matrix(-1 0 0 -1 -1748.38 -266.78)" gradientUnits="userSpaceOnUse" r="5.521" xlink:href="#lg4"/><g id="_x33_8"><g><g><g><g><circle cx="27.772" cy="27.742" fill="url(#SVGID_1_)" r="22.754"/><circle cx="27.772" cy="27.742" fill="#0850ac" r="22.754"/><g><path d="m48.6227951 18.6297932c-1.4666748-3.3511362-3.71521-6.2805796-6.5180054-8.5569468l4.9441528 8.5482798z" fill="url(#SVGID_2_)"/></g><g><path d="m50.0221481 32.5091858-2.9731445-.6146832-5.1422119 8.8907452 1.9457397 3.0553589c3.0505982-3.0472412 5.2368164-6.9572144 6.1696167-11.3314209z" fill="url(#SVGID_3_)"/></g><g><path d="m20.1458683 47.4233704-.5744629 1.5438232c2.5449829.9840088 5.3082886 1.5292969 8.2005005 1.5292969 1.1901245 0 2.3585815-.0922241 3.4993896-.2683105l-.8560181-2.8047485z" fill="url(#SVGID_4_)"/></g><circle cx="25.281" cy="25.258" fill="url(#SVGID_5_)" r="22.754"/><g fill="#efefef"><path d="m23.2727604 36.8627014-3.1268921 10.5606689c1.651001.3809814 3.3681641.5889893 5.1348877.5889893 1.7666016 0 3.4836426-.2079468 5.1345215-.5889282l-3.1268921-10.56073z"/><path d="m27.2883854 13.6527414 3.12677-10.5603027c-1.6508179-.3809204-3.3678589-.5889282-5.1343994-.5889282-1.7666626 0-3.4838257.2080078-5.1347656.5889893l3.12677 10.5602417h4.015625z"/><path d="m36.3352585 21.1947346 10.7136841-2.5736084c-1.0231934-3.3601084-2.8040771-6.3881235-5.1420288-8.8904428l-7.5799561 7.9855356z"/><path d="m14.2263737 29.3216877-10.7139895 2.5727539c1.0232542 3.3603497 2.804199 6.3885479 5.142334 8.8909283l7.5799561-7.9851685z"/><path d="m16.2346745 17.7162189-7.5800171-7.9856576c-2.3380132 2.5023804-4.118958 5.5303345-5.1422119 8.8905649l10.7139282 2.5736084z"/><path d="m36.3352585 29.3216877-2.0083008 3.4785137 7.579834 7.9850464c2.3380737-2.5024414 4.1190186-5.5305176 5.1422119-8.8907452z"/></g><circle cx="25.281" cy="25.275" fill="url(#SVGID_6_)" r="15.548"/><g><path d="m40.8291626 25.2748737c0-8.5872192-6.9613037-15.5484629-15.5484619-15.5484629s-15.5484629 6.9612437-15.5484629 15.5484629c0 8.5871563 6.9613047 15.548399 15.5484629 15.548399-4.0783081-.0327759-8.0826416-1.7511597-10.8967295-4.6517334-2.8531494-2.8622437-4.4934692-6.8676128-4.4633789-10.8967266.0026855-4.0288696 1.6711426-8.0092163 4.5325317-10.8275766 2.8414316-2.8391724 6.8239756-4.4663696 10.8275766-4.4373169 8.4246292-.0562582 15.3536224 6.8386278 15.3594971 15.2648935.0300293 4.0287476-1.6095581 8.034605-4.4633789 10.8961163-2.8137207 2.9005737-6.8178101 4.6192627-10.8961182 4.6523438 8.5871583-.0000001 15.548462-6.9612428 15.548462-15.5483991z" fill="url(#SVGID_7_)"/></g><g><g><circle cx="16.048" cy="11.436" fill="url(#SVGID_8_)" opacity=".5" r="4.025"/><path d="m16.4040794 11.8541698.4260636 1.4197073-.7276631-1.2919197-1.0942468 2.0352955.6221084-2.2254848-1.42.4267854 1.2919197-.7276592-2.0352888-1.0942411 2.2257699.6213808-.4270734-1.4192772.7279472 1.2911978 1.0939617-2.0345726-.6221123 2.2254829 1.4200039-.4267845-1.2909088.7272291 2.034277 1.094676z" fill="url(#SVGID_9_)"/></g></g><circle cx="25.281" cy="25.275" fill="url(#SVGID_10_)" r="11.228"/><path d="m16.4464531 18.3408699c-1.2599287 1.7697735-1.9993448 3.9346218-1.9993458 6.272953-.000001 5.9820099 4.8502102 10.8322182 10.832243 10.8322372 5.9846897.0000192 10.8349037-4.8501605 10.8349037-10.8321704 0-2.3383312-.739399-4.5031853-1.9993439-6.2729645 1.5001755 1.9085922 2.3944206 4.3190193 2.3944206 6.9349747-.0000038 6.2008801-5.0264034 11.2272434-11.2299805 11.2272243-6.200922-.0000191-11.2273035-5.026413-11.2273026-11.227293.0000011-2.6159553.8942291-5.0263767 2.3944055-6.9349613z" fill="url(#SVGID_11_)"/><path d="m48.0351486 25.257906c0-12.5668955-10.1875-22.7543945-22.7543926-22.7543945-12.5669556 0-22.7544556 10.1875-22.7544556 22.7543945 0 12.5669537 10.1875 22.7544537 22.7544556 22.7544537-5.9637451-.0933228-11.8118286-2.5869141-15.9175415-6.8369141-4.1542363-4.196045-6.5199587-10.0498028-6.4540408-15.9175396.0411988-5.862732 2.4338377-11.6571055 6.6029055-15.7686167 4.1326294-4.140625 9.9313354-6.5205078 15.7686768-6.4863892 5.8370361-.0319214 11.6354961 2.3461301 15.7680035 6.4869995 4.1702271 4.1109009 6.5599976 9.9060068 6.6018066 15.7680063.06604 5.8671265-2.298645 11.7212505-6.4533081 15.916502-4.1051025 4.2502441-9.9528179 6.7438354-15.916502 6.8379517 12.5668926 0 22.7543926-10.1875 22.7543926-22.7544536z" fill="url(#SVGID_12_)"/></g></g><g><path d="m14.3010244 25.2749348c.0505981-2.883606 1.2992554-5.6767578 3.3416758-7.6380615 2.0147095-1.9941416 4.8233643-3.1245127 7.6380615-3.0913706 5.9865704-.0629711 10.8753395 4.8836069 10.9772949 10.7294321.069397 2.8756714-1.0432739 5.791687-3.0891724 7.8881817-2.0410767 2.0907593-4.9360962 3.3220825-7.8775024 3.3396606 6.1963501-.0058594 11.2177734-5.0301495 11.2177734-11.2279034 0-6.2012939-5.0271606-11.2284555-11.2284546-11.2284555-6.201355 0-11.2285166 5.0271006-11.2285166 11.2283945 0 6.1976318 5.0215464 11.222044 11.2177744 11.2279644-2.9412842-.0175171-5.8364868-1.2485352-7.8778076-3.3393555-2.0474252-2.095396-3.159974-5.0124492-3.0911264-7.8884868z" fill="url(#SVGID_13_)"/></g></g><g><path d="m17.6127872 35.9648743c2.2527351 1.224041 5.1072445 1.9560204 8.2100639 1.9560204s5.9573307-.7319794 8.2100658-1.9560204c-1.7561111 1.8230705-4.7761612 3.0257187-8.2100658 3.0257187-3.433916 0-6.4539661-1.2026482-8.2100639-3.0257187z" fill="url(#SVGID_14_)"/><circle cx="29.215" cy="35.054" fill="url(#SVGID_15_)" opacity=".6" r="5.521"/></g><g opacity=".15"><path d="m42.7912407 10.7900105c-4.1734619-5.0604858-10.4915085-8.2865-17.5631027-8.2865-12.5669546 0-22.7544556 10.1875-22.7544556 22.7543945 0 6.2880859 2.5507822 11.9801617 6.6738286 16.0986309 33.5040355 3.662385 36.3893809-16.4537172 33.6437297-30.5665254z" fill="#fff"/></g></g><g><path d="m21.9716797 28.4195881c1.2672729 0 2.3155518-.8449097 2.612854-2.0026855v.3286133c-.2020874 1.2660522-.5145874 2.9130859-1.8137817 4.265625h5.019104c-1.2984619-1.3491821-1.6109619-2.9841309-1.8129883-4.25v-.3442383c.2973022 1.1577759 1.3455811 2.0026855 2.612854 2.0026855 1.4863281 0 2.690979-1.2047119 2.690979-2.69104 0-1.5018921-1.2046509-2.706604-2.690979-2.706604-.4537354 0-.8760986.1094971-1.2515869.3129272.4066772-.4537964.6414185-1.0639038.6414185-1.7210693 0-1.4862061-1.2047119-2.706604-2.706604-2.706604-1.4863892 0-2.6911011 1.2203979-2.6911011 2.706604 0 .6571655.2347412 1.2672729.6258545 1.7210693-.3754883-.2034302-.7822876-.3129272-1.2360229-.3129272-1.4862671 0-2.690979 1.2047119-2.690979 2.706604-.0000001 1.4863281 1.2047118 2.69104 2.6909789 2.69104z" fill="#0850ac"/></g></g></svg>