<svg id="Layer_1" height="512" viewBox="0 0 32 32" width="512" xmlns="http://www.w3.org/2000/svg" xmlns:xlink="http://www.w3.org/1999/xlink" data-name="Layer 1"><linearGradient id="linear-gradient" gradientUnits="userSpaceOnUse" x1="-2.05" x2="30.4" y1="27.32" y2="1.02"><stop offset=".01" stop-color="#0056e0"/><stop offset="1" stop-color="#00e5b8"/></linearGradient><path d="m10.14 12.3a.52.52 0 0 1 -.53.53.54.54 0 1 1 0-1.07.52.52 0 0 1 .53.54zm21.86-7.88v16.43a4.06 4.06 0 0 1 -4 4l-19-.11c-.14.13-.37.38-.63.68-.53.61-1.2 1.47-1.9 2.33s-1.42 1.72-2.08 2.41a7.13 7.13 0 0 1 -1 .89c-1.1.81-2 .71-2.6-.5a5.33 5.33 0 0 1 -.33-1.25 29.45 29.45 0 0 1 -.29-3.27c-.17-2.31-.17-4.8-.17-5.18v-16.43a4 4 0 0 1 1.24-2.8 4 4 0 0 1 2.82-1.25h23.94a4.07 4.07 0 0 1 4 4.05zm-19.73 7.88a2.67 2.67 0 1 0 -2.66 2.7 2.68 2.68 0 0 0 2.66-2.7zm6.4 0a2.67 2.67 0 1 0 -2.67 2.7 2.69 2.69 0 0 0 2.67-2.7zm6.4 0a2.67 2.67 0 1 0 -2.67 2.7 2.69 2.69 0 0 0 2.67-2.7zm-9.07-.54a.54.54 0 0 0 0 1.07.54.54 0 1 0 0-1.07zm6.4 0a.54.54 0 1 0 0 1.07.54.54 0 0 0 0-1.07z" fill="url(#linear-gradient)"/></svg>