<svg id="Layer_1" enable-background="new 0 0 512 512" height="512" viewBox="0 0 512 512" width="512" xmlns="http://www.w3.org/2000/svg" xmlns:xlink="http://www.w3.org/1999/xlink"><linearGradient id="SVGID_1_" gradientUnits="userSpaceOnUse" x1="86.294" x2="425.706" y1="425.706" y2="86.294"><stop offset="0" stop-color="#011c49"/><stop offset="1" stop-color="#00b8e0"/></linearGradient><path clip-rule="evenodd" d="m256 16c132.549 0 240 107.451 240 240s-107.452 240-240 240-240-107.452-240-240 107.451-240 240-240zm43.21 242.741c.845-.707 1.282-1.652 1.282-2.742 0-1.089-.436-2.034-1.282-2.736l-58.25-49.471c-1.091-.928-2.536-1.125-3.845-.522-1.281.603-2.073 1.831-2.073 3.263v23.04h-108.208c-3.954 0-7.199 3.229-7.199 7.187v38.481c0 3.953 3.245 7.182 7.199 7.182h108.209v23.04c0 1.432.791 2.66 2.073 3.263 1.309.603 2.754.406 3.845-.522zm-141.915 69.637c11.781 17.296 27.68 31.572 46.305 41.426 17.944 9.495 38.397 14.873 60.077 14.873 35.533 0 67.712-14.403 90.974-37.687 23.289-23.288 37.715-55.458 37.715-90.989s-14.426-67.7-37.715-90.99c-23.262-23.283-55.441-37.687-90.974-37.687-21.68 0-42.133 5.378-60.077 14.873-18.626 9.854-34.524 24.123-46.305 41.42-2.154 3.17-1.336 7.489 1.827 9.65 3.163 2.156 7.472 1.345 9.654-1.826 10.527-15.441 24.707-28.181 41.287-36.962 15.981-8.457 34.224-13.244 53.614-13.244 31.688 0 60.377 12.844 81.157 33.612 20.753 20.768 33.597 49.46 33.597 81.153 0 31.694-12.844 60.386-33.597 81.154-20.78 20.768-49.469 33.612-81.157 33.612-19.389 0-37.633-4.787-53.614-13.244-16.58-8.781-30.761-21.521-41.287-36.968-2.182-3.165-6.49-3.977-9.654-1.82-3.164 2.161-3.982 6.479-1.827 9.644z" fill="url(#SVGID_1_)" fill-rule="evenodd"/></svg>