<svg viewBox="0 0 512 512" xmlns="http://www.w3.org/2000/svg" xmlns:xlink="http://www.w3.org/1999/xlink"><linearGradient id="Degradado_sin_nombre_17" gradientUnits="userSpaceOnUse" x1="29.34" x2="490.997" y1="254.811" y2="254.811"><stop offset="0" stop-color="#62d470"/><stop offset=".2827" stop-color="#57cd67"/><stop offset=".7852" stop-color="#38bc4f"/><stop offset="1" stop-color="#29b343"/></linearGradient><radialGradient id="radial-gradient" cx="269.642" cy="324.812" gradientTransform="matrix(.765 -.644 .489 .58 -95.305 310.003)" gradientUnits="userSpaceOnUse" r="270.534"><stop offset="0"/><stop offset="1" stop-color="#fff" stop-opacity="0"/></radialGradient><radialGradient id="radial-gradient-2" cx="215.775" cy="149.352" fx="266.549" fy="297.528" gradientUnits="userSpaceOnUse" r="219.386"><stop offset="0" stop-color="#fff"/><stop offset=".0736" stop-color="#fff" stop-opacity=".824"/><stop offset=".1652" stop-color="#fff" stop-opacity=".633"/><stop offset=".262" stop-color="#fff" stop-opacity=".463"/><stop offset=".362" stop-color="#fff" stop-opacity=".32"/><stop offset=".4663" stop-color="#fff" stop-opacity=".203"/><stop offset=".5761" stop-color="#fff" stop-opacity=".113"/><stop offset=".6941" stop-color="#fff" stop-opacity=".05"/><stop offset=".8259" stop-color="#fff" stop-opacity=".012"/><stop offset="1" stop-color="#fff" stop-opacity="0"/></radialGradient><g isolation="isolate"><g id="Layer_1" data-name="Layer 1"><circle cx="260.169" cy="254.811" fill="url(#Degradado_sin_nombre_17)" r="230.829"/><path d="m263.0093 114.3233c-76.6843 0-139.1674 61.0837-139.1674 137.2047 0 25.3727 7.5738 49.8064 19.88 70.4812l-25.5604 73.3008 77.6308-24.4339c19.8815 10.338 42.6015 16.9157 67.217 16.9157 76.6838 0 139.1669-61.0838 139.1669-137.2043s-62.4831-137.2044-139.1669-136.2642zm.9464 251.8548a117.2755 117.2755 0 0 1 -64.3765-18.7953l-45.4425 14.0958 14.2012-43.2286a112.0428 112.0428 0 0 1 -22.7221-67.6623c0-63.9039 53.0169-115.59 117.3935-115.59s117.3918 51.686 118.3393 115.59c0 63.9036-53.0163 115.5904-117.3929 115.5904z" fill="#fff"/><path d="m212.0542 189.2786 9.126.5286a4.7351 4.7351 0 0 1 4.0756 2.9072l13.29 31.01a4.7524 4.7524 0 0 1 -.7974 4.9334l-11.6066 13.3022a3.463 3.463 0 0 0 -.443 3.8762c15.3281 29.2479 43.1488 40.8766 51.4774 43.7838a3.4632 3.4632 0 0 0 3.8984-1.1453l12.1383-15.6811a4.7963 4.7963 0 0 1 5.7592-1.4095l30.9218 14.0959a4.7841 4.7841 0 0 1 2.658 5.2857l-1.4176 6.7835a29.5133 29.5133 0 0 1 -12.8472 18.6764c-8.4171 5.2857-19.2265 7.9286-33.0483 4.0524-42.7943-12.0692-66.9825-40.26-80.0068-57.8792s-18.0747-35.2388-14.7965-49.5988c2.2151-9.6025 9.3032-17.0906 13.7332-20.8788a11.281 11.281 0 0 1 7.8855-2.6429z" fill="#fff" fill-rule="evenodd"/><path d="m472.4294 163.9832a230.5153 230.5153 0 0 1 2.6011 34.522c0 129.4458-107.6157 234.3828-240.3662 234.3828-75.187 0-142.3008-33.67-186.3769-86.3814 35.4755 81.8599 116.9838 139.1334 211.8813 139.1334 127.4829 0 230.8286-103.3452 230.8286-230.8286a230.064 230.064 0 0 0 -18.5679-90.8282z" fill="url(#radial-gradient)" mix-blend-mode="multiply"/><path d="m44.263 219.547c21.96 56.25 116.2212 71.9992 210.5376 35.1772s158.5388-114.7754 131.0114-168.5215c-16.263-31.7537-69.4149-60.3147-132.1229-62.1182h-.3424c-100.9337 2.9301-185.6031 70.6642-213.8983 163.0386a77.3993 77.3993 0 0 0 4.8146 32.4239z" fill="url(#radial-gradient-2)"/></g></g></svg>